<svg width="24" height="24" viewBox="0 0 24 24" fill="none" xmlns="http://www.w3.org/2000/svg">
<g clip-path="url(#clip0_665_596)">
<path d="M3 13.0001C2.44772 13.0001 2 12.5524 2 12.0001C2 11.4478 2.44771 11.0001 3 11.0001L18.1486 11C17.2671 10.2871 15.8853 9.46331 13.8246 8.22689L12.0581 7.16701C11.863 7.04998 11.6743 6.93679 11.4916 6.8274L11.4834 6.82251C11.1839 6.64175 11.0015 6.31985 11.0002 5.97005L11.0002 5.96156C11.0002 5.9617 11.0002 5.96194 11.0002 5.95873C11.0045 5.38364 11.4828 5.00397 12 5.00003C12.4259 4.99679 12.7353 5.24095 13.0871 5.45202L14.8536 6.5119L14.9318 6.55885C18.9645 8.97838 21 10.1996 21 11.9999C21 13.8001 18.9645 15.0213 14.9318 17.4409L14.8536 17.4878L13.0871 18.5477C12.7355 18.7586 12.4256 19.0033 12 19C11.4828 18.9961 11.0045 18.6161 11.0002 18.041C11.0002 18.0375 11.0002 18.0381 11.0002 18.0382L11.0002 18.0296C11.0015 17.6799 11.1839 17.358 11.4834 17.1772L11.4916 17.1723C11.6743 17.0629 11.863 16.9497 12.0581 16.8327L13.8246 15.7728C15.8849 14.5366 17.2666 13.7129 18.1482 13L3 13.0001Z" fill="#1D2023"/>
</g>
<defs>
<clipPath id="clip0_665_596">
<rect width="24" height="24" fill="white"/>
</clipPath>
</defs>
</svg>
