<svg width="24" height="24" viewBox="0 0 24 24" fill="none" xmlns="http://www.w3.org/2000/svg">
<g clip-path="url(#clip0_703_751)">
<path fill-rule="evenodd" clip-rule="evenodd" d="M4.68206 4.68597C3.36919 5.99884 3.27184 7.30684 3.07715 9.92282C3.02668 10.601 2.99609 11.3005 2.99609 12C2.99609 12.6995 3.02668 13.399 3.07715 14.0772C3.27184 16.6932 3.36919 18.0012 4.68206 19.314C5.99494 20.6269 7.30293 20.7243 9.91892 20.9189C10.597 20.9694 11.2966 21 11.9961 21C12.6956 21 13.3951 20.9694 14.0733 20.9189C16.6893 20.7243 17.9973 20.6269 19.3101 19.314C20.623 18.0012 20.7203 16.6932 20.915 14.0772C20.9655 13.399 20.9961 12.6995 20.9961 12C20.9961 11.3005 20.9655 10.601 20.915 9.92282C20.7203 7.30684 20.623 5.99884 19.3101 4.68597C17.9973 3.3731 16.6893 3.27575 14.0733 3.08105C13.3951 3.03058 12.6956 3 11.9961 3C11.2966 3 10.597 3.03058 9.91892 3.08105C7.30293 3.27575 5.99494 3.3731 4.68206 4.68597ZM8.49475 9.99976C8.49475 8.06609 10.0623 6.49854 11.996 6.49854C13.9296 6.49854 15.4972 8.06609 15.4972 9.99976C15.4972 11.9334 13.9296 13.501 11.996 13.501C10.0623 13.501 8.49475 11.9334 8.49475 9.99976ZM12.8456 15.0212C14.3922 15.0985 15.9132 15.4613 18.6992 16.1665C18.5536 17.0805 18.344 17.4515 17.8959 17.8996C17.1897 18.6058 16.6752 18.7196 13.9248 18.9242C13.2877 18.9717 12.6383 18.9998 11.9961 18.9998C11.3539 18.9998 10.7045 18.9717 10.0674 18.9242C7.317 18.7196 6.80247 18.6058 6.09628 17.8996C5.64818 17.4515 5.43861 17.0806 5.29298 16.1667C8.08216 15.4611 9.60463 15.0981 11.1513 15.0211C11.4327 15.007 11.7143 15 11.996 15C12.2793 15 12.5626 15.007 12.8456 15.0212Z" fill="#BBC1C7"/>
</g>
<defs>
<clipPath id="clip0_703_751">
<rect width="24" height="24" fill="white"/>
</clipPath>
</defs>
</svg>
