<svg width="24" height="24" viewBox="0 0 24 24" fill="none" xmlns="http://www.w3.org/2000/svg">
<g clip-path="url(#clip0_703_2280)">
<path d="M4 19C3.44772 19 3 19.4477 3 20C3 20.5523 3.44772 21 4 21H20C20.5523 21 21 20.5523 21 20C21 19.4477 20.5523 19 20 19H4Z" fill="#8D969F"/>
<path d="M10.9998 14.0332L10.9998 3C10.9998 2.44771 11.4475 2 11.9998 2C12.5521 2 12.9998 2.44772 12.9998 3L12.9998 14.0347C13.1718 13.8213 13.3712 13.569 13.6091 13.2673C14.1136 12.6275 14.5148 12.1176 14.8324 11.6946C15.1343 11.2925 15.462 11 16.0007 11C16.2288 11 16.4715 11.1076 16.6461 11.292C16.9259 11.5875 17.0306 12.0802 16.6191 12.6426C16.2392 13.1619 15.759 13.7709 15.1796 14.5057C14.0724 15.9098 13.5188 16.6119 12.8427 16.8538C12.298 17.0487 11.7027 17.0487 11.1581 16.8538C10.4819 16.6119 9.92831 15.9098 8.8211 14.5056C8.2417 13.7708 7.76155 13.1619 7.3816 12.6426C6.97016 12.0802 7.07485 11.5875 7.35468 11.292C7.52923 11.1076 7.77192 11 8 11C8.53878 11 8.86641 11.2925 9.16833 11.6946C9.48594 12.1176 9.88711 12.6275 10.3916 13.2673C10.629 13.5683 10.828 13.8201 10.9998 14.0332Z" fill="#8D969F"/>
</g>
<defs>
<clipPath id="clip0_703_2280">
<rect width="24" height="24" fill="white"/>
</clipPath>
</defs>
</svg>
